<?xml version="1.0" encoding="UTF-8"?>
<svg version="1.1" viewBox="0 0 467 175" xmlns="http://www.w3.org/2000/svg">
<g>
<path d="m325.23 132.47c-17.514-4.7827-32.646-29.354-35.684-57.942-1.5608-14.687-1.325-15.621 4.423-17.518 6.2755-2.0711 5.9859-2.785 11.124 27.417 1.7912 10.529 12.972 28.307 21.494 34.176l5.3566 3.6892 4.7784-1.7954c9.8964-3.7184 12.633-7.259 16.114-20.848 2.1439-8.3689 2.2926-4.9969-1.9146-43.425-1.2918-11.799-1.1316-12.216 5.704-14.826 6.5297-2.4937 6.6266-2.2314 9.8545 26.664 5.1462 46.068-11.757 72.46-41.25 64.407zm20.594-5.3782c9.1525-4.6734 13.366-11.06 17.169-26.025 2.3214-9.1346 2.3009-10.435-0.58473-37.067-2.24-20.673-2.0493-20.021-5.5036-18.817-3.354 1.1692-3.4698 2.1042-1.9511 15.749 3.5502 31.897 3.537 31.439 1.1652 40.3-3.7796 14.121-8.4739 19.642-19.803 23.286l-5.1839 1.6678-4.3161-3.0201c-6.2544-4.3765-9.2768-7.4723-13.602-13.933-9.7129-14.507-10.591-16.944-14.31-39.734-1.5512-9.5046-2.9812-11.209-6.7046-7.9913-3.7556 3.2456 3.8381 31.301 13.415 49.562 8.7579 16.7 25.678 23.441 40.21 16.021zm-324.16 4.2416c-2.3141-2.3141-0.40258-9.0694 5.7192-20.211 7.6989-14.012 26.466-50.859 29.082-57.1 2.393-5.7079 13.278-17.023 16.376-17.023 4.898 0 19.237 66.678 16.972 78.918-1.0303 5.5657-0.75646 5.3607-7.0303 5.2614l-5.2852-0.08363-24.777-25.545-3.8602 4.4748c-3.406 3.9482-12.969 21.648-15.789 29.225-1.008 2.7076-9.2728 4.2171-11.407 2.0833zm13.338-14.683c10.538-21.418 17.214-27.795 22.463-21.453 21.408 25.868 32.077 29.611 28.613 10.039-0.55834-3.1553-2.1788-12.487-3.601-20.737-4.6744-27.116-7.8016-41.235-9.5005-42.895-1.9237-1.8795-12.18 9.9102-14.863 17.086-1.2409 3.3182-9.1996 19.166-17.686 35.217-15.609 29.524-17.746 35.092-13.465 35.092 1.5184 0 3.3436-2.8036 8.0401-12.349zm35.046-15.1c-4.623-4.6471-8.8451-8.1776-9.3824-7.8455-0.53736 0.3321-0.69999 0.1556-0.36141-0.39223 0.33858-0.54783-0.94189-2.5056-2.8455-4.3507-3.4202-3.315-4.2436-5.6641-2.6334-7.5123 1.3145-1.5087 7.2684-15.479 8.8465-20.757 1.4008-4.6852 1.5283-4.7993 5.0302-4.5 4.337 0.37062 4.6257 0.89647 6.7553 12.307 0.92385 4.95 2.7734 13.406 4.11 18.79 5.7489 23.159 3.1724 27.019-9.5193 14.261zm6.568-10.84c-1.2095-4.1999-6.6184-29.919-6.6184-31.471 0-2.1319-2.5593 1.4132-4.0251 5.5754-1.0183 2.8915-3.3077 8.4167-5.0875 12.278l-3.2361 7.0208 19.849 19.945 0.30944-4.0693c0.17019-2.2381-0.36578-6.414-1.191-9.2797zm26.125 40.7c-3.1056-3.1056-0.18698-11.368 4.343-12.294 4.2796-0.87527 4.8025-2.9926 5.338-21.616 0.39252-13.652 1.1452-19.069 3.4474-24.815 0.63471-1.5841 1.1344-8.5806 1.1427-16 0.0266-23.74 1.1484-24.033 29.113-7.5873 39.518 23.239 40.865 32.483 5.4508 37.394l-4.9214 0.68241 8.4214 3.7618c29.614 13.228 36.216 18.963 29.171 25.338-5.8068 5.2543-30.401 10.641-62.75 13.744-5.5 0.52755-11.803 1.2241-14.006 1.5479-2.2035 0.32379-4.341 0.25405-4.75-0.15496zm15.704-4.418c71.357-8.9298 76.625-12.202 45.064-27.992-24.471-12.243-25.065-13.529-7.8491-16.981 16.423-3.2923 20.603-5.839 16.708-10.179-5.1827-5.7735-25.815-19.218-44.628-29.08-6.6427-3.4824-8.7323 1.4915-7.3522 17.5 0.34327 3.9818 0.2097 8.8146-0.29683 10.74-0.50654 1.925-1.5984 5.975-2.4263 9s-1.4729 7.3-1.4332 9.5c0.1174 6.5168-1.0292 24.746-1.7736 28.196-0.54947 2.5468-1.3261 3.3316-3.8253 3.8655-3.983 0.85082-5.6359 2.1886-5.6359 4.5614 0 2.225 1.7272 2.3367 13.448 0.86993zm1.6217-5.862c-0.64242-1.2004-0.67791-3.9747-0.0992-7.75 0.4958-3.2342 1.2066-9.3521 1.5796-13.595 0.91598-10.42 1.7529-11.447 8.0506-9.8739 12.957 3.2362 42.899 17.651 42.899 20.653 0 2.688-19.564 9.3878-27.5 9.4177-3.025 0.0114-9.325 0.69444-14 1.5179-10.479 1.8459-9.731 1.8712-10.93-0.36966zm21.43-4.1745c6.6114-0.56412 12.848-1.8415 18.405-3.7697l8.4054-2.9165-12.405-5.9678c-28.421-13.672-30.35-13.774-31.246-1.6432-0.35903 4.8627-0.94937 10.598-1.3118 12.744l-0.65906 3.9027 4.4056-0.74816c2.4231-0.41149 8.9056-1.1321 14.406-1.6014zm-16.259-37.706c-1.8534-4.6597-0.8169-27.739 1.2588-28.029 2.092-0.29222 40.513 18.187 41.657 20.036 3.0118 4.8662-11.994 9.6523-30.439 9.708-10.309 0.03117-11.868-0.18315-12.477-1.7144zm24.759-2.2731c3.575-0.55437 8.2431-1.7694 10.374-2.7l3.8736-1.6921-35.747-17.743-0.287 10.262c-0.15785 5.6439-0.0595 10.855 0.21862 11.579 0.62132 1.6191 12.022 1.7748 21.568 0.29454zm258.91 53.405c-2.0887-2.5365-1.5706-24.439 1.0261-43.382 1.1686-8.525 2.3898-17.569 2.7139-20.099l0.58918-4.5987-10.371-0.76627c-5.7042-0.42145-11.046-0.73358-11.871-0.69362-12.181 0.58995-19.361-4.8636-14.734-11.191 1.1626-1.5899 2.377-1.6421 14.918-0.64068 15.321 1.2234 26.453 0.14291 47.778-4.637l11.462-2.5691 1.7883 2.2084c4.8034 5.9319 1.2355 8.8981-15.712 13.062-10.741 2.6392-12.5 3.9113-12.5 9.0414 0 3.7545-3.4979 32.629-4.573 37.749-0.46839 2.2306-0.38176 2.3648 0.56497 0.87502 2.4395-3.8388 6.2764-6.8436 8.3597-6.5466 3.8419 0.54763 3.0343 4.6305-3.8186 19.306l-6.5374 14-3.8343 0.29951c-2.6804 0.20937-4.2597-0.21709-5.2478-1.4171zm7.6604-3.6324c0.57962-1.8402 9.2629-20.622 11.212-24.25 1.1874-2.211-5.0729 4.1914-6.5696 6.7186-4.735 7.9952-6.7042 4.1366-4.7768-9.3601 2.2322-15.631 3.3478-24.223 4.1368-31.859 1.181-11.429-0.0736-10.414 19.193-15.528 10.77-2.8583 11.586-3.2801 10.316-5.3346-0.61433-0.99402-4.2078-0.56213-16.684 2.0052-14.955 3.0773-17.046 3.2645-35.142 3.1454-10.582-0.06969-19.474 0.25068-19.759 0.71193-1.644 2.66 2.7931 3.8045 17.216 4.4407 21.877 0.96502 22.173 1.1301 20.33 11.321-2.0052 11.089-6.0406 45.756-6.0442 51.923-4e-3 7.1726 4.8207 11.625 6.5721 6.0651zm-199.35 1.3152c-18.828-6.9039-24.193-16.318-24.399-42.809l-0.1396-17.986 3.0975-6.6191c9.558-20.425 34.344-28.001 57.009-17.426 19.438 9.0699 32.611 49.149 21.319 64.861-10.908 15.179-41.079 25.774-56.886 19.978zm20.916-3.5274c24.73-4.7322 38.12-16.948 36.449-33.253-3.7672-36.77-21.011-53.03-50.707-47.813-21.635 3.8002-28.274 14.056-27.705 42.798 0.62257 31.457 13.966 43.625 41.963 38.268zm-9.6084-6.6512c-20.363-2.966-27.043-9.6733-24.985-25.086 0.88449-6.6237 2.0389-7.2784 9.475-5.3734 8.7178 2.2334 9.6743 2.1006 10.19-1.4145 0.48495-3.3042 1.2208-3.0077-11.711-4.7187l-6-0.79381-0.82727-9.4119-0.82726-9.4119 5.584-5.5881c5.493-5.4971 5.7477-5.6223 15.635-7.684l10.051-2.0958 4.1771 2.0667c5.4795 2.7111 18.948 16.288 25.031 25.232 8.2742 12.166 6.6162 23.613-5.1199 35.349-10.347 10.347-13.883 11.376-30.673 8.9307zm20.08-4.4841c14.934-9.9729 21.174-24.27 15.109-34.618-4.0472-6.9061-16.859-20.948-22.923-25.125l-5.555-3.8259-9.5453 2.0238c-9.9622 2.1122-18.7 8.475-17.929 13.055 0.14706 0.87302 0.36418 4.1431 0.48248 7.2669l0.21509 5.6796 8.5175 0.70001c9.4585 0.77734 9.9803 1.1488 10.002 7.1194 0.0263 7.163-2.4697 8.3754-11.985 5.8214-8.6271-2.3156-8.3189-2.5703-7.7971 6.4444 0.6395 11.047 3.8059 13.401 22.174 16.487 12.233 2.0553 14.822 1.9168 19.233-1.0291z"/>
<path d="m25.414 128.12c-0.89611-2.3352 2.1808-9.2689 14.637-32.984 6.7483-12.848 16.654-32.521 18.073-35.893 1.8876-4.4869 5.1162-9.3474 8.8176-13.275 2.1514-2.2826 4.8507-4.4792 5.5043-4.4792 1.6211 0 4.7792 14.171 10.751 48.244 3.979 22.702 4.0964 25.676 1.0806 27.366-0.84517 0.47373-1.2845 0.4907-2.5886 0.1-4.212-1.262-12.827-8.9088-21.196-18.814-2.1672-2.565-4.385-4.8662-4.9285-5.1138-1.7021-0.77552-3.7472-0.5398-5.6197 0.64774-3.7579 2.3832-7.6145 8.0642-14.374 21.174-5.1631 10.014-5.7142 10.981-7.1524 12.56-1.0567 1.16-2.6437 1.4071-3.0042 0.46766zm56.163-19.81c1.9773-1.9773 1.3792-7.559-2.6523-24.752-0.87103-3.7148-2.2753-10.228-3.1205-14.473-2.4191-12.15-2.6681-12.618-6.9577-13.066-3.4541-0.36103-3.7564-0.0656-5.7327 5.6041-2.0951 6.0104-5.7532 14.696-7.7437 18.386-0.84151 1.5601-1.53 3.1792-1.53 3.598 0 1.2319 1.0331 2.8857 3.5097 5.6186 1.2783 1.4106 2.4227 3.0571 2.5431 3.659 0.12037 0.60184 0.44206 1.0943 0.71488 1.0943 0.75686 0 3.9969 2.6885 9.0904 7.5429 7.2887 6.9466 10.109 8.5585 11.879 6.7889z" stroke-width=".38595"/>
<path d="m106.75 127.6c-1.406-0.38071-1.8024-1.2747-1.2049-2.7172 0.56658-1.3678 2.116-2.291 5.4598-3.253 2.3816-0.68519 2.721-0.97722 3.3675-2.8969 0.6182-1.8357 1.5334-13.242 1.9551-24.365l0.35844-9.4558 3.9477-15.341-0.10946-11.627c-0.1061-11.271-0.0835-11.683 0.73634-13.458 1.6541-3.5813 2.8965-3.4411 11.551 1.3036 21.751 11.925 40.672 25.251 40.672 28.645 0 2.5098-4.8989 4.584-16.982 7.1902-10.946 2.3609-12.736 3.0582-12.736 4.9605 0 2.1356 2.6207 3.8628 17.477 11.519 16.614 8.5617 20.346 11.223 20.346 14.51 0 2.4578-5.3098 4.8808-15.324 6.9928-9.2066 1.9417-24.219 4.2209-43.148 6.5509-12.747 1.569-15.125 1.7787-16.366 1.4427zm20.419-5.2237c5.3154-1.0123 10.948-1.7341 16.639-2.1325 6.4919-0.45438 13.362-2.0188 20.182-4.5956 6.9306-2.6187 9.4002-4.2911 8.4853-5.7464-0.88492-1.4076-6.05-4.4984-14.624-8.7509-12.119-6.0112-23.186-10.399-29.213-11.582-5.6986-1.1185-6.2423-0.26327-7.4668 11.745-0.33551 3.2902-0.86027 7.8816-1.1661 10.203-0.78267 5.9406-0.72693 8.6165 0.21156 10.156 0.67041 1.0995 0.96792 1.2543 2.4108 1.2543 0.90528-4e-5 2.9486-0.24814 4.5406-0.55134zm23.498-42.091c10.152-1.4676 16.633-3.945 17.821-6.8116 0.41483-1.0015 0.37976-1.2863-0.26462-2.1494-0.95494-1.279-7.473-4.8096-19.827-10.739-13.691-6.5715-19.652-9.1581-21.222-9.2081-1.302-0.04141-1.3607 0.01914-1.8292 1.887-1.7478 6.9687-1.5145 25.908 0.33311 27.049 1.6685 1.0312 17.787 1.0131 24.988-0.02802z" stroke-width=".38595"/>
<path d="m221.02 125.24c-9.792-1.3796-16.911-7.0612-20.793-16.594-2.7529-6.7604-3.719-13.332-3.7168-25.28 2e-3 -12.838 0.99334-18.945 4.1007-25.272 3.725-7.5843 10.04-11.61 22.221-14.165 4.1614-0.87295 5.8231-1.023 11.251-1.0162 5.6036 7e-3 6.8181 0.12755 10.116 1.0036 16.632 4.4185 26.509 19.125 29.813 44.391 0.7417 5.671 0.74093 6.5349-9e-3 10.224-1.0115 4.9759-2.8575 8.2087-7.0981 12.431-4.258 4.2392-8.3523 6.8454-14.578 9.2797-10.172 3.9772-23.477 6.1014-31.307 4.9982zm26.537-7.2523c3.4249-1.3503 6.1442-3.3986 11.063-8.333 7.5049-7.529 10.513-12.996 10.88-19.773 0.43518-8.0365-2.2718-13.893-11.232-24.302-4.1518-4.823-11.711-12.262-15.115-14.874-1.2736-0.97732-3.5937-2.4202-5.1558-3.2064l-2.8401-1.4295-8.1595 1.7303c-11.944 2.5329-11.778 2.4525-18.085 8.7049l-5.294 5.2478 0.85555 9.4513 0.85556 9.4513 7.8979 1.0843c4.3439 0.59636 8.3384 1.3003 8.8769 1.5643 0.85471 0.4191 0.96511 0.69231 0.86997 2.153-0.16863 2.589-0.60756 3.1194-2.5817 3.1194-0.93423 0-3.4899-0.43765-5.6792-0.97256-2.1893-0.53491-4.9689-1.0796-6.1769-1.2104-2.0605-0.22317-2.266-0.16822-3.3228 0.88864-0.86548 0.86548-1.2311 1.7273-1.578 3.7193-0.5833 3.3496-0.6113 9.588-0.054 12.032 1.3492 5.917 6.0511 10.133 14.147 12.686 9.7593 3.077 24.863 4.2254 29.828 2.268z" stroke-width=".38595"/>
<path d="m327.66 129.17c-5.6741-1.4496-10.692-4.4478-15.068-9.003-3.6274-3.7761-5.5385-6.6913-8.6678-13.222-6.9765-14.558-12.337-32.488-12.338-41.27-4.9e-4 -2.84 0.0686-3.0899 1.1536-4.175 0.83452-0.83451 1.4491-1.1202 2.2192-1.0317 1.5974 0.1837 2.5733 2.6241 3.7529 9.3853 3.9077 22.397 5.0068 25.513 13.477 38.206 4.5728 6.8523 8.8717 11.363 14.844 15.576l3.9928 2.8162 4.3051-1.4133c12.48-4.0969 16.915-9.1031 20.931-23.629 2.2474-8.129 2.2217-10.007-0.47192-34.45-1.6332-14.82-1.8084-19.244-0.80654-20.353 0.98713-1.0933 3.5794-1.8882 4.275-1.311 0.74459 0.61796 1.2435 3.4482 2.3563 13.366 2.1471 19.137 2.6263 24.595 2.6598 30.297 0.0314 5.3521-0.0808 6.4497-1.065 10.421-3.7354 15.07-7.7497 21.748-16.006 26.624-5.8566 3.4588-13.534 4.703-19.544 3.1675z" stroke-width=".38595"/>
<path d="m412.67 128.04c-1.8278-1.9083-2.3677-3.7602-2.3346-8.0085 0.0511-6.5729 3.137-33.753 5.5762-49.114 1.3573-8.5477 1.2732-9.7875-0.75604-11.155-1.7602-1.1862-4.098-1.6035-11.539-2.0597-19.98-1.2249-21.958-1.4353-24.15-2.5692-1.3775-0.71235-1.2349-1.7097 0.30568-2.1374 0.63681-0.17679 8.5392-0.40653 17.561-0.51052 22.092-0.25465 20.926-0.14684 38.016-3.5137 10.385-2.0458 13.996-2.4578 14.504-1.6547 1.0658 1.6834-0.17192 2.2622-11.031 5.1586-11.393 3.0388-13.931 3.9276-15.649 5.4802-1.817 1.6416-1.9831 2.3431-3.2739 13.83-0.54855 4.8813-1.6896 13.826-2.5357 19.876-1.7904 12.804-2.1677 17.664-1.5477 19.935 0.84022 3.0777 2.3027 2.5347 5.5501-2.0606 1.9686-2.7858 5.6851-6.8222 5.6851-6.1745 0 0.1542-0.84508 1.9706-1.878 4.0364-2.323 4.646-8.9286 19.197-8.9286 19.668 0 0.53928-1.5181 2.0348-2.0656 2.0348-0.27043 0-0.94916-0.47761-1.5083-1.0614z" stroke-width=".38595"/>
</g>
</svg>
