<?xml version="1.0" encoding="UTF-8"?>
<svg version="1.1" viewBox="0 0 588 175" xmlns="http://www.w3.org/2000/svg">
<g>
<path d="m145.31 132.97c-19.495-5.3587-36.075-36.538-36.208-68.094-0.0216-5.1078-0.0163-5.1162 4.2618-6.75 6.2339-2.3807 6.399-2.2711 7.7043 5.1141 0.65619 3.7125 2.05 11.628 3.0973 17.59 3.7066 21.101 21.571 44.909 31.291 41.701 16.962-5.598 20.956-17.213 17.629-51.268-2.6885-27.519-2.807-26.51 3.4009-28.941 6.4356-2.5199 6.347-2.6749 8.7303 15.262 7.3678 55.452-7.8483 84.197-39.906 75.385zm21.792-5.0851c12.87-6.9978 19.857-24.916 17.978-46.102-0.9696-10.933-4.1112-37.572-4.4879-38.055-1.6648-2.1353-7.4637 3.271-7.0045 6.5303 7.1879 51.026 3.7183 66.64-16.517 74.328-13.533 5.1421-31.154-18.164-36.406-48.152-1.5839-9.044-2.9655-16.558-3.0702-16.698-0.37329-0.49884-6.5144 1.9623-6.4935 2.6023 0.55821 17.111 3.6771 28.62 12.54 46.273 10.528 20.969 26.949 28.252 43.46 19.274zm-143.02 0.0289c0-3.6887 1.0905-6.5465 5.6198-14.727 6.1341-11.079 26.701-51.577 29.829-58.736 2.1315-4.8778 13.259-16.97 15.594-16.945 3.7076 0.039 6.4127 7.9424 10.434 30.485 2.5052 14.044 4.3906 24.736 6.0397 34.25 4.4653 25.762-5.229 27.313-26.085 4.1741-8.2058-9.1041-10.037-10.669-11.285-9.6457-2.7651 2.2673-10.334 14.843-15.237 25.315-5.8674 12.534-14.91 16.069-14.91 5.8294zm14.348-10.673c6.3103-12.818 12.298-21.918 15.886-24.144 1.4665-0.90983 3.0033 0.31046 9.96 7.909 28.592 31.23 30.504 27.262 17.766-36.863-2.6101-13.14-4.911-21.942-6.0393-23.104-1.986-2.0451-13.5 11.476-15.809 18.565-1.2064 3.7035-28.922 57.35-31.617 61.197-2.5632 3.6595-1.9924 9.6899 0.91729 9.6899 2.1006 0 3.2563-1.7137 8.9356-13.25zm30.74-19.154c-12.411-12.448-12.411-12.448-7.8184-22.772 2.5261-5.6781 4.9108-11.674 5.2992-13.324 2.3219-9.8633 8.4305-7.5039 10.356 4 0.64447 3.85 2.47 12.4 4.0567 19 6.7527 28.088 4.9901 30.029-11.894 13.096zm12.419 3.1545c-0.37409-2.8875-1.5053-8.625-2.5137-12.75s-2.561-11.325-3.4501-16c-2.4512-12.889-2.4849-13-3.9476-13-0.76398 0-2.119 2.3134-3.075 5.25-0.94003 2.8875-3.255 8.6044-5.1444 12.704-3.4353 7.4543-3.4353 7.4543 7.327 18.25 12.592 12.631 11.66 12.153 10.804 5.5457zm147.65 29.5c-2.7601-5.2682-2.2235-16.709 2.3556-50.219 1.3129-9.6077 2.2633-17.592 2.1119-17.744-0.15137-0.15137-7.2155-0.76082-15.698-1.3543-21.667-1.516-21.353-1.4098-21.734-7.3577-0.31058-4.8594-0.31058-4.8594 15.5-4.1566 17.361 0.77169 28.244-0.35208 48.71-5.0298 11.862-2.7113 12.368-2.5991 13.268 2.9437 0.71389 4.3992-0.29782 4.96-16.709 9.2617-5.7515 1.5076-10.77 3.003-11.152 3.3232-0.38185 0.32019-1.8635 10.032-3.2925 21.582s-2.8537 21.9-3.166 23c-0.39646 1.3966 0.75915 0.71778 3.8303-2.25 5.0454-4.8756 6.0169-5.1235 7.7066-1.9664 2.4431 4.5649-12.081 31.716-16.966 31.716-2.6489 0-4.1338-0.54536-4.7649-1.75zm9.3245-6c1.4246-3.1625 4.314-9.35 6.421-13.75 4.7312-9.8799 0.63454-10.107-4.514-0.25-2.5829 4.9449-4.7646 3.5823-4.0029-2.5 3.8263-30.554 6.4225-49.876 6.7364-50.136 0.20985-0.17356 3.5315-1.0766 7.3815-2.0069 28.508-6.888 30.708-13.05 2.5-7.0018-12.439 2.667-15.134 2.8945-34.292 2.8945-20.792 0-20.792 0-20.5 2.5 0.36599 3.1297 2.842 3.6423 22.792 4.7181 16.724 0.90185 16.158-0.49343 12.089 29.782-2.8731 21.379-3.7156 36.461-2.1952 39.301 2.119 3.9594 4.7575 2.7238 7.5842-3.5515zm49.045 5.5c-7.5146-10.629-12.484-74.444-6.3994-82.18 5.474-6.9591 9.0114 0.43043 10.378 21.68 0.69131 10.75 0.69131 10.75 11.948 10.75 17.12 0 23.725-0.87425 23.035-3.0487-3.4963-11.016-1.1046-37.951 3.3699-37.951 6.4844 0 6.7588 0.76373 8.8125 24.531 1.6825 19.471 1.6825 19.471 5.2578 20.475 7.5414 2.1173 13.985 2.3937 14.662 0.62901 1.6422-4.2796 8.4135 0.33589 8.4135 5.7349 0 1.6564-11.297 4.6205-17.697 4.6435-6.9377 0.02491-8.1618 0.77633-8.7016 5.3411-3.0615 25.892-4.8296 31.645-9.7241 31.645-2.9531 0-4.0619-13.387-3.0128-36.374 0.26808-5.8741 0.26808-5.8741-12.124-5.1594-22.219 1.2815-21.136-0.07508-20.177 25.283 0.64281 16.994-2.3006 22.119-8.0406 14zm5.6297-17.776c-0.44711-23.187-0.85414-22.429 12.52-23.33 5.405-0.36434 13.09-0.94527 17.077-1.291 7.25-0.62853 7.25-0.62853 7.25 21.009 0 12.002 0.39699 21.638 0.89142 21.638 2.269 0 5.4944-12.726 6.5899-26 0.91875-11.132 0.83327-10.994 6.8361-11.037 11.042-0.07831 20.138-2.6121 19.099-5.3201-0.68775-1.7923-2.4166-2.2524-2.4166-0.64313 0 2.092-17.888 0.5579-21.795-1.8692-0.88885-0.55217-1.7804-6.7362-2.8428-19.718-1.7856-21.819-2.4502-24.413-6.2545-24.413-2.8592 0-3.4735 19.934-1.0462 33.947 1.2383 7.1486 2.2826 6.7743-20.062 7.1899-19.5 0.36266-19.5 0.36266-20.189-12.637-0.68165-12.857-2.3855-21.105-4.3152-20.888-6.7092 0.75605-2.4071 67.438 5.1057 79.138 3.3843 5.2704 3.9117 2.9272 3.5511-15.776zm245.4 16.776c-0.78039-1.7875-3.1274-8.1115-5.2156-14.053-6.6632-18.96-12.918-23.672-31.44-23.687-13.139-0.01062-11.962-2.2563-13.516 25.776-0.37472 6.7567-1.0536 12.515-1.5087 12.796-0.87337 0.53977-8.8362-1.4697-10.123-2.5547-0.93134-0.78505 3.976-79.196 5.0104-80.058 13.114-10.921 53.668-9.2474 64.137 2.6466 10.266 11.662 1.0712 39.384-13.063 39.384-0.45479 0 0.68321 2.1375 2.5289 4.75 2.8003 3.9637 12.637 24.827 14.312 30.356 0.31871 1.0519-0.98803 2.6898-3.7894 4.75-5.3026 3.8996-5.5863 3.8955-7.3331-0.10551zm8.4512-4.2157c0-1.6425-12.975-28.144-15.043-30.726-3.9155-4.8876-3.8483-5.1148 2.587-8.7467 15.375-8.6769 18.675-25.638 6.9869-35.9-11.471-10.071-19.637-10.238-54.592-1.1157-3.1126 0.81235-10.607 74.989-7.8154 77.354 5.2902 4.483 6.2899 1.6814 7.458-20.9 0.90679-17.53 0.0144-16.5 14.293-16.5 13.759 0 21.164 2.7232 27.484 10.107 3.4308 4.0081 3.8687 4.9861 9.6643 21.587 2.7717 7.9392 8.9763 11.285 8.9763 4.8406zm-58.194-52.413c-0.10695-6.1169-0.21945-12.538-0.25-14.269-0.11416-6.4671 31.678-12.816 41.444-8.2766 17.383 8.0795 16.266 26.69-1.8806 31.346-22.583 5.7934-39.123 2.0908-39.314-8.8002zm36.005 6.7624c8.934-1.7678 17.279-10.879 15.139-16.527-7.4965-19.784-48.949-14.957-48.949 5.7 0 6.3856 0.18625 11.798 0.41388 12.027 0.81049 0.81594 28.179-0.16694 33.396-1.1993zm-122.19 49.953c-31.578-7.0039-39.465-70.12-10.602-84.845 33.537-17.109 65.356 5.1409 68.588 47.962 1.6292 21.581-31.621 42.731-57.986 36.883zm22.882-4.3367c31.674-8.3289 40.656-30.605 24.888-61.722-14.735-29.077-59.296-28.438-70.395 1.0089-14.248 37.803 9.9352 70.067 45.507 60.713zm-10.5-6.2203c-24.203-2.7632-31.311-9.6635-28.358-27.53 0.72486-4.3854 1.019-4.4397 11.176-2.0639 8.1017 1.895 9.1357 1.4671 9.1666-3.7936 0.0159-2.7091-4.7363-3.8925-15.631-3.8925-3.2242 0-3.3533-0.1483-3.3533-3.8533 0-2.1193-0.24154-6.5068-0.53677-9.75-1.2974-14.252 24.122-25.836 37.092-16.903 26.876 18.51 33.903 41.19 17.929 57.862-9.3652 9.774-14.035 11.46-27.484 9.9248zm16.511-4.1241c24.543-14.967 21.449-39.398-7.698-60.794-12.807-9.4013-33.313 0.8168-33.313 16.6 0 8.6844 0.25036 9.0014 7.125 9.022 10.695 0.03196 11.375 0.45893 11.375 7.1403 0 6.5899-3.4789 7.6807-14.159 4.4395-6.1307-1.8606-7.898 3.4908-4.8166 14.585 2.1542 7.7556 32.673 14.382 41.486 9.0072z"/>
<path d="m27.695 128.52c-0.98341-2.3742-0.2796-4.9892 2.841-10.556 6.3598-11.345 26.799-51.241 31.176-60.854 2.6346-5.7861 11.449-16.052 13.783-16.052 1.128 0 3.7762 10.42 7.5952 29.886 6.8864 35.1 7.8173 47.593 3.6252 48.645-2.7014 0.678-8.8818-4.4372-20.578-17.032-7.222-7.7763-9.7024-9.9888-11.199-9.9888-1.1177 0-4.6209 3.8142-7.5516 8.2219-1.7026 2.5607-5.6807 9.6156-8.8402 15.678s-6.2351 11.584-6.8347 12.27c-1.5194 1.7399-3.2437 1.646-4.0161-0.21867zm56.872-20.675c0.26066-0.68558 0.47392-1.9712 0.47392-2.8569 0-2.4344-1.6178-11.156-3.8813-20.923-1.1149-4.8109-2.6567-11.853-3.4263-15.648-1.439-7.0973-3.112-11.368-4.8086-12.276-2.8031-1.5002-4.726 0.20259-6.5976 5.8425-0.7487 2.2561-2.7834 7.3822-4.5216 11.391-2.6698 6.1578-3.1672 7.7418-3.2046 10.205-0.03826 2.5201 0.16291 3.2124 1.4825 5.1025 2.2115 3.1676 17.602 18.155 19.872 19.351 2.6684 1.4066 4.0261 1.3512 4.6113-0.18804z" stroke-width=".48595"/>
<path d="m147.55 130.68c-5.7153-1.3834-12.128-5.7635-16.67-11.386-7.0498-8.7274-14.999-26.606-17.605-39.597-1.2433-6.1967-2.1708-16.695-1.542-17.452 0.49582-0.59742 5.3168-2.4633 5.5925-2.1645 0.0907 0.09834 1.0593 5.1087 2.1524 11.134 2.1631 11.924 3.784 18.124 6.6002 25.248 5.2352 13.242 13.017 23.597 20.502 27.282 2.7487 1.3532 3.8632 1.6317 6.529 1.6317 2.859 0 3.7296-0.25568 7.8717-2.3119 7.9493-3.9462 12.467-9.6035 14.646-18.341 2.1503-8.6222 2.0794-23.005-0.20607-41.792-1.776-14.599-1.762-13.818-0.28801-16.045 1.2363-1.8682 4.3184-3.9049 4.9514-3.2719 0.41903 0.41902 1.3849 7.3112 3.1839 22.719 1.9101 16.359 2.1497 27.888 0.7171 34.502-2.1128 9.7547-5.4218 16.38-10.946 21.918-7.0623 7.0793-16.658 10.063-25.489 7.926z" stroke-width=".48595"/>
<path d="m232.88 130.13c-0.33971-0.12166-0.99575-0.91216-1.4578-1.7566-1.6812-3.0724-0.81718-18.278 2.3791-41.869 1.7922-13.228 2.2477-20.749 1.4102-23.286-1.019-3.0875-2.7471-3.5467-16.59-4.4092-16.621-1.0355-19.345-1.592-19.997-4.0853-0.55829-2.1349 0.1406-2.2188 21.219-2.5458 11.369-0.17642 21.332-0.55047 23.13-0.86842 1.7373-0.30718 7.0949-1.3361 11.906-2.2864 9.1701-1.8114 17.214-2.4109 17.595-1.3114 0.45869 1.3223-9.6276 5.0242-22.401 8.2218-6.0229 1.5077-7.0564 1.9054-7.2778 2.8004-0.31386 1.2684-2.6046 18.165-4.9178 36.275-2.1534 16.858-2.1836 18.952-0.27295 18.952 1.0416 0 1.8074-0.87688 4.0539-4.6422 3.2115-5.383 5.613-7.1895 4.972-3.7404-0.426 2.2925-8.6792 20.232-10.281 22.347-1.3351 1.763-2.5496 2.5349-3.47 2.2052z" stroke-width=".48595"/>
<path d="m290.66 129.11c-4.2838-6.016-7.6145-24.915-8.8714-50.339-0.76656-15.505 0.0993-26.574 2.2605-28.898 1.599-1.7194 3.2998 4.4674 4.1235 14.999 1.0913 13.954 1.5159 15.657 4.2502 17.05 1.6974 0.8643 21.87 1.2121 30.084 0.51873 7.9608-0.672 7.8995-0.59464 6.6793-8.4296-1.2029-7.7235-1.3207-27.183-0.18306-30.24 0.87783-2.3588 1.4647-2.5774 3.0954-1.1533 1.7602 1.5374 2.4065 5.0564 3.9085 21.283 1.3173 14.232 1.9373 19.144 2.6542 21.03 0.34041 0.89533 1.1177 1.3591 3.281 1.9577 3.6227 1.0024 10.078 1.7963 14.606 1.7963 2.9713 0 3.7029-0.167 4.5817-1.0458 0.98431-0.98431 1.0824-0.99583 1.6674-0.19574 0.34188 0.46756 0.51002 1.1409 0.37363 1.4963-0.73302 1.9102-9.686 4.1188-16.696 4.1188-4.9584 0-6.7179 0.3942-7.571 1.6962-0.42264 0.64503-0.99999 3.9736-1.4423 8.3153-1.2995 12.756-3.9379 24.885-5.7381 26.379-0.96959 0.80469-1.2739-3.6791-1.2823-18.896-7e-3 -13.381-0.51228-20.486-1.544-21.729-0.33146-0.39939-1.0605-0.90022-1.62-1.113-0.56255-0.21388-7.4481 0.10979-15.401 0.72398-15.444 1.1927-16.603 1.457-17.956 4.0965-0.48535 0.94686-0.70489 5.6464-0.89183 19.091-0.2642 19.002-0.4283 20.214-2.3683 17.489z" stroke-width=".48595"/>
<path d="m408.81 126.05c-9.501-1.106-18.595-6.2294-24.132-13.596-6.8348-9.0923-9.7976-21.932-7.8967-34.22 2.4959-16.135 8.6503-26.023 19.811-31.83 5.9886-3.1156 10.136-4.0388 18.167-4.0441 5.9956-4e-3 7.3114 0.14998 11.083 1.2968 7.3615 2.2382 12.633 5.4058 17.642 10.601 3.6657 3.8016 5.5743 6.6119 7.9864 11.759 11.805 25.192 6.7581 44.35-14.358 54.501-9.0267 4.3391-20.049 6.494-28.302 5.5332zm22.914-8.3468c5.1792-2.4176 11.612-8.384 15.286-14.177 6.1533-9.7031 5.4314-21.783-1.977-33.08-5.6526-8.6202-18.57-19.985-24.855-21.867-3.2337-0.96853-10.392-0.96597-14.166 0.0051-8.8094 2.2663-16.367 8.4844-18.3 15.057-0.67738 2.3032 0.0725 16.706 0.91356 17.547 0.50231 0.50231 1.9855 0.69019 5.4487 0.69019 5.0327 0 9.0051 0.56348 11.135 1.5795 1.3597 0.64857 1.8629 2.3784 1.3204 4.5396-0.55031 2.1926-1.6226 2.267-9.5994 0.66594-4.0809-0.81909-7.9088-1.3665-8.5064-1.2165-1.5976 0.40096-2.2758 3.4053-2.3084 10.225-0.0253 5.3037 0.087 6.0762 1.2408 8.5365 2.3715 5.0566 6.7465 8.1164 14.886 10.411 6.6024 1.8612 12.765 2.6376 20.049 2.5261 6.0308-0.0923 6.7922-0.20862 9.433-1.4413z" stroke-width=".48595"/>
<path d="m542.69 126.91c-2.1549-1.9971-3.6394-4.7851-5.733-10.767-2.9348-8.3859-4.6638-12.613-6.0716-14.843-2.1723-3.4412-6.6832-7.5119-10.366-9.3541-5.6637-2.8334-9.5317-3.4886-20.64-3.496l-9.6367-0.0064-1.3537 1.5143c-1.6268 1.8198-1.803 2.8768-2.4612 14.765-0.84553 15.27-1.6694 21.122-3.146 22.348-1.2466 1.0346-3.7734-0.84285-4.2658-3.1694-1.3543-6.3995 4.154-61.914 7.193-72.495 0.82232-2.863-0.23778-2.3497 10.186-4.9323 24.52-6.0748 33.048-5.7747 42.616 1.4997 3.7422 2.845 5.6829 5.0877 7.5734 8.7522 1.1921 2.3107 1.321 3.0611 1.321 7.6857 0 4.9625-0.0591 5.2447-1.8636 8.8984-2.3138 4.6848-5.9935 8.517-11.257 11.723-4.9548 3.0183-5.5884 3.5698-5.5884 4.8642 0 0.58325 0.83855 2.2441 1.8634 3.6908 3.6919 5.2113 14.948 28.013 15.496 31.391 0.47907 2.9522-1.6297 4.0049-3.8678 1.9307zm-24.245-43.356c10.268-1.5078 15.324-3.2697 19.349-6.7431 4.706-4.0606 6.1782-11.251 3.4436-16.819-1.8222-3.7103-5.7137-7.4448-9.9397-9.5387-3.1787-1.575-3.9568-1.7507-8.7615-1.9784-12.43-0.58914-28.918 3.3078-33.135 7.8315-1.1592 1.2434-1.1626 1.2805-0.91338 9.9724 0.23744 8.2817 0.31497 8.8403 1.528 11.011 0.70281 1.2575 1.2778 2.5868 1.2778 2.954s0.40956 0.66772 0.91013 0.66772 1.9367 0.45408 3.1913 1.0091c5.4392 2.406 13.771 2.9967 23.049 1.6341z" stroke-width=".48595"/>
</g>
</svg>
