<?xml version="1.0" encoding="UTF-8"?>
<svg version="1.1" viewBox="0 0 650 171" xmlns="http://www.w3.org/2000/svg">
<g>
<path d="m64.5 132.1c-35.046-12.509-47.42-41.716-30.952-73.055 17.623-33.537 65.69-28.555 68.267 7.0756 0.46779 6.4672 0.56321 6.3767-4.9711 4.7185-2.9289-0.87751-4.0241-1.8029-4.4385-3.75-7.0625-33.184-46.808-24.466-53.367 11.706-6.3977 35.281 45.09 59.245 57.496 26.76 2.7434-7.1835 12.093-7.1371 11.107 0.0551-1.9182 13.995-13.391 22.923-35.64 27.734-1.375 0.29732-4.75-0.26252-7.5-1.2441zm14.145-3.2098c16.002-4.9344 31.513-20.062 26.109-25.465-1.5385-1.5385-4.6455 1.0061-6.2007 5.0784-8.0983 21.205-46.481 18.679-57.516-3.7848-15.923-32.416 7.9702-69.583 37.639-58.55 8.5955 3.1963 13.76 9.7983 16.791 21.462 0.58306 2.2444 4.4867 0.97424 3.983-1.296-10.089-45.476-70.537-29.624-70.558 18.503-0.011424 25.637 28.269 50.678 49.752 44.053zm433.86 3.2098c-35.046-12.509-47.42-41.716-30.952-73.055 17.623-33.537 65.69-28.555 68.267 7.0756 0.46779 6.4672 0.56321 6.3767-4.9712 4.7185-2.9289-0.87751-4.0241-1.8029-4.4385-3.75-7.0625-33.184-46.808-24.466-53.367 11.706-6.3976 35.281 45.09 59.245 57.496 26.76 2.7434-7.1835 12.093-7.1371 11.107 0.0551-1.9182 13.995-13.391 22.923-35.64 27.734-1.375 0.29732-4.75-0.26252-7.5-1.2441zm14.145-3.2098c16.002-4.9344 31.513-20.062 26.11-25.465-1.5385-1.5385-4.6455 1.0061-6.2007 5.0784-8.0983 21.205-46.481 18.679-57.516-3.7848-15.923-32.416 7.9702-69.583 37.639-58.55 8.5955 3.1963 13.76 9.7983 16.791 21.462 0.58306 2.2444 4.4867 0.97424 3.983-1.296-10.089-45.476-70.537-29.624-70.558 18.503-0.0114 25.637 28.269 50.678 49.752 44.053zm-189.49 1.3639c-2.7515-5.2516-2.2368-16.355 2.3292-50.247 1.2964-9.6232 2.246-17.608 2.1102-17.744-0.13587-0.13587-7.1873-0.73263-15.67-1.3261-21.36-1.4945-21.309-1.4783-21.923-6.9657-0.5-4.4677-0.5-4.4677-3.7638 5.2518-7.5898 22.603-9.9435 37.525-8.2796 52.491 1.2636 11.366 0.49949 14.45-4.3703 17.641-5.6331 3.691-6.3275 2.7467-6.735-9.1597-0.48808-14.26-0.44328-14.203-19.062-24.265-8.409-4.5444-18.332-10.282-22.051-12.749s-6.9046-4.3049-7.079-4.0823-0.85901 7.6047-1.5215 16.405c-2.2349 29.689-1.5398 27.02-8.2181 31.555-10.104 6.8612-10.181 6.6676-6.439-16.133 2.2048-13.435 4.3554-31.829 6.1022-52.192 0.97158-11.326 6.5326-15.768 12.397-9.9031 2.7991 2.7991 2.9785 7.3931 0.54391 13.933-0.87943 2.3625 23.368 20.205 34.82 25.623 10.758 5.0894 10.012 5.6756 12.543-9.8594 4.2846-26.305 9.6377-41.524 14.606-41.524 4.0003 0 7.7994 4.3706 7.3257 8.4278-0.75423 6.4605 32.672 5.9347 63.619-1.0007 11.846-2.6549 12.344-2.5463 13.225 2.8857 0.70574 4.349 0.6659 4.371-16.663 9.2194-8.9436 2.5022-11.583 3.6343-11.875 5.0927-4.5488 22.748-5.4092 44.089-1.6279 40.378 4.7088-4.6214 5.7093-4.8542 7.3871-1.7192 2.4431 4.5649-12.081 31.716-16.966 31.716-2.6489 0-4.1338-0.54536-4.7649-1.75zm7.5371-2c0.34531-0.9625 3.224-7.2625 6.3972-14 3.1731-6.7375 5.4357-12.25 5.0279-12.25-0.98634 0-5.4212 4.8134-7.6012 8.25-5.0669 7.9875-5.2074 5.6899-1.4832-24.25 3.8454-30.914 3.2819-28.616 7.2058-29.379 11.025-2.144 24.763-6.9655 24.763-8.6913 0-2.8389-1.4865-3.1173-7.8461-1.4693-19.046 4.9352-43.767 6.9765-59.99 4.9534-5.1845-0.64655-5.3265-0.59868-5 1.6855 0.53065 3.7122 3.8288 4.5668 20.583 5.3331 8.6274 0.39459 16.099 0.97252 16.603 1.2843 1.1134 0.68812 0.42288 9.6619-2.3303 30.283-3.2815 24.579-3.7202 35.569-1.5169 38.003 2.2291 2.4631 4.3564 2.5643 5.1878 0.24687zm-55.22-5.1576c0.32393-1.0206 0.1237-6.7894-0.44496-12.82-1.4098-14.949 2.1558-35.068 9.9722-56.267 3.5504-9.6292 3.6898-11.567 0.93815-13.04-5.0665-2.7115-9.5433 9.2869-14.453 38.735-2.899 17.388-1.9747 16.179-10.31 13.494-9.8794-3.1819-19.599-9.3403-40.959-25.953-1.4172-1.1021-1.4748-2.0893-0.46628-7.9774 0.99926-5.8336 0.93951-6.9533-0.4532-8.4922-4.5183-4.9926-7.7749 0.63941-8.675 15.002-0.84807 13.533-3.085 31.966-5.925 48.821-2.2065 13.096-2.2065 13.096 2.5638 10 5.5735-3.6176 5.3003-2.6988 6.7186-22.596 2.2503-31.57 1.0454-29.724 13.816-21.163 4.7889 3.2102 15.346 9.3977 23.461 13.75 17.704 9.4956 17.984 9.8738 18.142 24.504 0.10333 9.5601 3.5835 11.853 6.0753 4.0018zm99.529 4.3308c0-3.691 1.0908-6.5457 5.6361-14.75 6.1363-11.076 26.724-51.6 29.728-58.515 3.9218-9.0279 19.636-21.687 19.636-15.819 0 0.18702 0.91117 3.8995 2.0248 8.25 4.5818 17.899 12.115 63.443 11.417 69.027-1.5092 12.08-10.816 8.1722-29.679-12.461l-7.6284-8.344-4.6782 6.344c-4.3987 5.965-15.456 27.216-15.456 29.705 0 0.7136-2.0533 1.1387-5.5 1.1387-5.5 0-5.5 0-5.5-4.5768zm11.892-5.9602c7.1709-15.972 16.035-29.463 19.359-29.463 0.59444 0 6.8958 6.075 14.003 13.5 23.987 25.059 25.317 19.779 11.648-46.248-3.7742-18.231-4.2984-19.645-6.7898-18.311-3.4792 1.862-10.356 10.48-12.816 16.06-3.2558 7.3863-14.618 29.784-25.444 50.158-9.6889 18.233-11.061 23.24-6.2101 22.659 2.242-0.26855 3.1875-1.5324 6.25-8.3535zm33.358-23.706c-14.026-14.068-13.303-12.263-8.7022-21.717 1.9513-4.0095 4.4972-10.182 5.6574-13.716 4.2681-13.002 8.3672-9.5628 12.359 10.368 1.7836 8.9058 3.7072 17.681 4.2748 19.5 5.8179 18.647 1.2999 20.498-13.589 5.5648zm11.222-2.8417c-1.6999-7.7634-7.4482-35.233-7.4633-35.666-0.0815-2.3322-3.1837 0.98866-4.4014 4.7116-0.89258 2.7289-3.2097 8.4437-5.1491 12.7-3.5263 7.7379-3.5263 7.7379 7.2578 18.569 12.04 12.093 12.47 12.079 9.756-0.3149zm147.31 34.834c-2.28-3.9916 0.7735-45.486 4.7726-64.857 0.62387-3.0218-0.66588-3.2917-21.558-4.5107-15.409-0.89904-16-1.1576-16-6.9971 0-4.6639 0-4.6639 15.75-3.9639 17.214 0.76514 27.86-0.32692 48.688-4.9946 11.846-2.6549 12.344-2.5463 13.225 2.8857 0.70574 4.349 0.6659 4.371-16.663 9.2194-8.9436 2.5022-11.583 3.6343-11.875 5.0927-4.5488 22.748-5.4092 44.089-1.6279 40.378 4.7088-4.6214 5.7093-4.8542 7.3871-1.7192 4.5625 8.525-17.362 37.759-22.099 29.466zm7.9054-1.5c0.34531-0.9625 3.224-7.2625 6.3972-14 3.1731-6.7375 5.4357-12.25 5.0279-12.25-0.98634 0-5.4212 4.8134-7.6012 8.25-5.0669 7.9875-5.2074 5.6899-1.4832-24.25 3.8454-30.914 3.2819-28.616 7.2058-29.379 11.025-2.144 24.763-6.9655 24.763-8.6913 0-2.8389-1.4865-3.1173-7.8461-1.4693-19.046 4.9352-43.767 6.9765-59.99 4.9534-5.1845-0.64655-5.3265-0.59868-5 1.6855 0.53065 3.7122 3.8288 4.5668 20.583 5.3331 8.6274 0.39459 16.099 0.97252 16.603 1.2843 1.1134 0.68812 0.42288 9.6619-2.3303 30.283-3.2815 24.579-3.7202 35.569-1.5169 38.003 2.2291 2.4631 4.3564 2.5643 5.1878 0.24687zm-452.07 0.59808c-32.597-7.3199-39.409-72.74-8.9112-85.583 35.034-14.754 63.478 6.0551 66.871 48.921 1.682 21.251-31.924 42.508-57.959 36.662zm24.276-4.886c30.432-8.4331 39.047-30.552 23.682-60.801-9.9126-19.515-38.015-27.687-57.17-16.625-17.284 9.9818-22.06 53.147-7.6305 68.963 10.34 11.334 22.055 13.745 41.118 8.4621zm-17.034-6.5244c-20.86-3.7753-25.899-9.3564-23.413-25.932 0.78616-5.2425 0.8961-5.2701 11.29-2.8392 8.2031 1.9186 7.7766 2.0576 8.6578-2.8216 0.66008-3.6546 0.66008-3.6546-8.7274-4.3584-16.397-1.2294-13.666-27.76 3.2289-31.367 19.797-4.2269 21.542-3.7168 34.784 10.167 17.906 18.774 20.468 29.802 10.241 44.083-9.7038 13.551-17.592 16.41-36.061 13.067zm21.651-3.2814c15.935-9.7179 21.523-25.839 13.273-38.292-16.743-25.275-37.395-32.706-50.235-18.076-7.7961 8.8834-6.0135 21.169 3.0754 21.197 10.754 0.03213 11.508 0.4981 11.171 6.8995-0.34281 6.5061-3.7506 7.6916-13.655 4.7504-6.4495-1.9153-8.2572 3.2073-5.1188 14.506 2.1727 7.8223 32.602 14.435 41.489 9.0156z"/>
<path d="m66.88 129.36c-11.55-1.9138-24.575-11.638-31.525-23.536-6.5407-11.198-7.8581-23.653-3.8354-36.26 2.5916-8.1224 8.1257-16.353 14.29-21.253 3.4668-2.7556 11.488-6.8061 15.222-7.6869 17.247-4.0677 32.482 5.2835 37.336 22.918 0.85199 3.0947 0.85805 3.4507 0.07206 4.2367-1.3915 1.3915-2.3643 0.48051-3.6447-3.4135-3.4518-10.497-8.9209-16.316-17.956-19.105-5.2821-1.6302-12.653-1.593-17.481 0.08801-7.7565 2.7009-14.281 8.5993-18.508 16.732-3.8371 7.3827-4.8353 11.7-4.8358 20.914-3.55e-4 6.4299 0.21353 8.5799 1.2256 12.319 2.5665 9.4833 6.5276 15.776 12.886 20.472 10.569 7.8047 26.262 9.727 37.481 4.5909 4.1796-1.9135 8.3885-6.1218 10.714-10.713 3.0455-6.0121 5.3244-7.7482 6.728-5.1256 2.4294 4.5395-7.0926 14.958-19.101 20.899-7.4194 3.6707-13.297 4.8801-19.07 3.9236z" stroke-width=".53719"/>
<path d="m150.65 125.97c-9.2451-1.4672-18.703-8.6572-22.836-17.36-4.9547-10.433-5.5553-27.066-1.4876-41.194 2.7266-9.4707 7.8474-17.444 13.205-20.562 6.5919-3.8359 16.354-5.7316 24.124-4.6845 11.31 1.5242 19.619 5.6327 26.811 13.256 7.9211 8.3967 14.086 25.7 13.166 36.953-0.88141 10.782-6.4637 19.245-16.773 25.427-9.6546 5.7902-26.805 9.6571-36.21 8.1644zm23.24-7.5831c4.8759-1.0256 8.4895-3.0796 12.575-7.1478 7.484-7.4525 11.491-15.363 11.491-22.685 0-8.4941-4.6921-16.585-17.103-29.491-11.215-11.662-14.613-12.934-27.859-10.426-3.1911 0.60417-6.9329 1.4639-8.3149 1.9105-11.428 3.6927-16.289 20.55-8.1458 28.248 2.0717 1.9585 3.9365 2.5858 9.3742 3.1532 2.5435 0.26541 5.0213 0.63479 5.5062 0.82085 1.0156 0.38971 1.1109 1.7934 0.31614 4.6552-0.6734 2.4248-1.3634 2.5105-7.7976 0.96778-2.3838-0.57154-5.5629-1.2022-7.0646-1.4014-2.5803-0.34229-2.7852-0.27884-3.7237 1.153-0.84707 1.2923-0.9932 2.6252-0.9932 9.0601 0 7.2534 0.0568 7.6415 1.4692 10.044 2.5276 4.2996 6.9014 6.7904 15.989 9.1054 9.288 2.3659 18.879 3.1686 24.281 2.0322z" stroke-width=".53719"/>
<path d="m284.73 125.84c-0.40124-0.96029-0.89443-4.8885-1.096-8.7293-0.20155-3.8408-0.60781-7.9503-0.90279-9.1321-0.85577-3.4285-4.9241-6.8854-13.871-11.787-12.862-7.0457-21.443-12.075-27.322-16.014-7.1568-4.7956-8.6641-5.4481-10.162-4.3992-1.6142 1.1307-2.1062 4.3252-3.3456 21.725-1.6729 23.486-1.6214 23.282-6.7658 26.698-3.1192 2.071-4.0197 1.9357-3.6248-0.54469 3.5103-22.047 5.6916-38.976 6.8996-53.55 1.002-12.088 2.0108-17.158 3.8487-19.342 0.74436-0.88462 1.5551-1.6084 1.8016-1.6084s1.192 0.62583 2.101 1.3907c1.902 1.6004 2.0205 2.7024 1.0432 9.6967-0.33604 2.4049-0.46388 4.9431-0.28408 5.6405 0.35986 1.3958 16.535 13.781 24.851 19.028 8.7684 5.5327 18.816 9.9051 22.762 9.9051 2.288 0 2.733-1.2343 4.8415-13.43 3.0802-17.816 5.7296-29.193 8.0696-34.653 1.3116-3.0606 3.6268-5.6365 5.0659-5.6365 1.4154 0 2.99 1.5443 2.99 2.9325 0 0.53225-1.6758 5.9831-3.724 12.113-7.9115 23.678-10.072 37.28-8.9679 56.464 0.53158 9.2362 0.31041 11.498-1.3281 13.581-1.4398 1.8304-1.9978 1.7629-2.88-0.34853z" stroke-width=".53719"/>
<path d="m340.58 128.52c-2.8803-2.4826-2.6973-11.029 0.84224-39.341 1.2194-9.7543 2.2539-20.38 2.2987-23.613l0.0816-5.8778-1.8802-0.3891c-1.0341-0.214-6.8358-0.6566-12.893-0.98354-19.399-1.0471-22.562-1.8962-22.562-6.0557 0-1.0036 0.22433-1.0696 2.5517-0.75079 1.4034 0.19223 6.7882 0.49852 11.966 0.68062 14.709 0.5173 31.408-1.1541 47.133-4.7174 8.0181-1.8169 9.983-1.846 10.225-0.15132 0.13271 0.92908-0.51446 1.4268-3.7169 2.8588-4.1386 1.8505-14.138 4.884-19.698 5.976-3.7643 0.73925-4.014 1.0129-4.8823 5.3502-0.81813 4.0866-4.7566 35.769-5.5286 44.474-0.56016 6.3164-0.53621 7.2365 0.20781 7.9805 0.76318 0.76317 1.189 0.376 4.6025-4.185 4.0018-5.347 6.0242-7.5031 6.0242-6.4223 0 0.58596-3.6162 8.7559-9.5941 21.675-1.3108 2.8329-2.4929 4.7004-2.9753 4.7004-0.44023 0-1.4314-0.5439-2.2027-1.2087z" stroke-width=".53719"/>
<path d="m393.09 129.38c-2.1434-0.86488 0.36243-7.5486 8.7612-23.369 3.1899-6.0084 10.58-20.413 16.422-32.009s11.41-22.233 12.372-23.636c2.7911-4.0703 8.2356-9.3964 9.3871-9.1831 1.5272 0.2829 2.9298 5.2141 6.6228 23.285 4.8964 23.959 7.055 37.135 7.3483 44.855 0.28406 7.4768-0.19141 9.2847-2.5139 9.5585-2.3619 0.27847-6.3586-3.0039-18.646-15.314-6.5728-6.5847-12.216-11.972-12.541-11.972-3.2398 0-10.875 11.284-18.754 27.717-4.533 9.4536-5.9123 11.095-8.4586 10.068zm56.7-22.314c1.0962-1.0962 0.71696-5.9442-0.97447-12.459-0.8905-3.4297-2.7199-11.352-4.0654-17.605-3.8863-18.061-5.7011-22.73-8.6945-22.369-1.9171 0.23082-3.0055 1.9603-5.6813 9.0276-1.2864 3.3977-3.5843 8.8566-5.1063 12.131-3.4383 7.3968-3.5196 8.8555-0.69068 12.397 3.2038 4.0112 15.036 15.337 18.329 17.545 3.0329 2.0335 5.6709 2.5438 6.8832 1.3315z" stroke-width=".53719"/>
<path d="m512.84 128.91c-12.841-2.7872-26.341-14.878-32.404-29.021-2.4712-5.764-3.3206-10.861-2.9843-17.907 0.37046-7.7603 1.3747-11.748 4.6826-18.592 4.5115-9.335 10.62-15.519 19.603-19.848 7.7789-3.748 14.313-4.7659 21.219-3.3055 10.931 2.3116 19.094 10.008 22.846 21.54 1.6071 4.9405 1.4668 6.4476-0.60025 6.4476-0.7739 0-1.3853-1.051-2.6565-4.5661-2.0002-5.5313-2.4746-6.4538-5.2026-10.117-6.0802-8.165-19.798-11.798-30.35-8.0376-10.061 3.5855-18.19 13.048-21.654 25.207-1.7168 6.026-1.9957 15.473-0.64834 21.961 2.1662 10.431 6.4354 17.807 13.292 22.963 10.559 7.9404 26.324 9.9275 37.644 4.7448 4.1796-1.9135 8.3885-6.1218 10.714-10.713 3.0455-6.0121 5.3244-7.7482 6.728-5.1256 3.2459 6.0651-14.048 21.071-28.102 24.385-4.0852 0.96321-7.6332 0.95819-12.127-0.0171z" stroke-width=".53719"/>
<path d="m596.47 128.2c-1.5365-1.3728-1.7008-1.8439-1.9392-5.5586-0.33077-5.154 0.4495-14.037 3.1286-35.62 2.0281-16.338 2.7939-26.61 2.0409-27.376-0.33006-0.33562-4.6168-0.69763-22.396-1.8913-11.866-0.7967-14.355-1.6206-14.718-4.873-0.13526-1.2119 0.0208-1.3075 2.0021-1.2265 18.877 0.77221 22.32 0.79945 29.642 0.23445 10.323-0.79666 20.178-2.2393 28.392-4.1565 7.6528-1.7862 11.691-1.9928 11.961-0.61206 0.11478 0.58497-0.47447 1.3286-1.6009 2.0202-2.2282 1.3682-14.853 5.4916-20.584 6.723-2.3636 0.50786-4.583 1.1546-4.932 1.4371-1.0065 0.81494-1.6847 4.8306-4.2482 25.154-2.4181 19.171-3.344 29.779-2.7372 31.361 0.53145 1.3849 1.6769 0.4982 4.2905-3.3212 2.3403-3.4201 6.8211-8.3054 6.8211-7.4369 0 0.37605-4.4181 10.247-9.5567 21.351-1.1756 2.5405-2.5313 4.7703-3.0126 4.9549-0.54569 0.20939-1.5068-0.22875-2.5537-1.1642z" stroke-width=".53719"/>
</g>
</svg>
